# xmcd CD database file
#
# Track frame offsets:
#	150
#	20603
#	42968
#	58703
#	75972
#	97097
#	112013
#	131949
#	150803
#	171556
#	191333
#
# Disc length: 2767 seconds
#
# Revision: 1
# Processed by: cddbd v1.4PL0 Copyright (c) Steve Scherf et al.
# Submitted via: CDex 1.50beta8
#
DISCID=8c0acd0b
DTITLE=Luca Carboni - Luca
DYEAR=1999
DGENRE=Blues
TTITLE0=Mi ami davvero
TTITLE1=La nostra storia
TTITLE2=Chiudi gli occhi
TTITLE3=Una rosa per te
TTITLE4=Parole
TTITLE5=Autoritratto
TTITLE6=L'amore non lo sa
TTITLE7=Quante cose
TTITLE8=Voglia di piangere
TTITLE9=I problemi della gente
TTITLE10=Stellina dei cantautori
EXTD=YEAR: 1999
EXTT0=
EXTT1=
EXTT2=
EXTT3=
EXTT4=
EXTT5=
EXTT6=
EXTT7=
EXTT8=
EXTT9=
EXTT10=
PLAYORDER=
